<svg width="270" height="71" viewBox="0 0 270 71" fill="none" xmlns="http://www.w3.org/2000/svg">
<path d="M3.089 55.0733L6.7958 54.1466V14.6074L3.089 13.6807V12.754H19.7696C26.03 12.754 30.6223 13.7631 33.5465 15.7812C36.512 17.7582 37.9947 20.3529 37.9947 23.5655C37.9947 25.7896 37.3563 27.5812 36.0795 28.9404C34.8027 30.2995 33.1759 31.3086 31.1989 31.9676C29.0984 32.7089 26.8331 33.1002 24.4031 33.1414V33.4503C27.4097 33.5739 30.0251 34.0269 32.2492 34.8095C34.5144 35.5508 36.3884 36.704 37.8711 38.2691C39.395 39.8342 40.157 41.8318 40.157 44.2618C40.157 47.9274 38.6537 50.8105 35.6471 52.911C32.6404 54.9703 27.7598 56 21.0052 56H3.089V55.0733ZM19.7696 32.5236C21.1288 32.5236 22.385 32.1529 23.5382 31.4116C24.7326 30.629 25.6799 29.5582 26.3801 28.199C27.1214 26.7987 27.4921 25.2542 27.4921 23.5655C27.4921 21.7533 27.1214 20.147 26.3801 18.7467C25.6799 17.3463 24.7326 16.2549 23.5382 15.4723C22.385 14.6898 21.1288 14.2985 19.7696 14.2985H16.9895V32.5236H19.7696ZM21.0052 54.4555C23.5588 54.4555 25.6387 53.5494 27.245 51.7372C28.8513 49.925 29.6544 47.4332 29.6544 44.2618C29.6544 41.0904 28.8513 38.5986 27.245 36.7864C25.6387 34.9742 23.5588 34.0681 21.0052 34.0681H16.9895V54.4555H21.0052ZM44.4623 55.0733L48.1691 54.1466V26.9634L44.4623 26.0367V25.11H50.0225C52.4525 25.11 54.3677 25.8925 55.768 27.4576C56.3035 28.0754 56.7565 28.8374 57.1272 29.7435C57.745 28.8374 58.5069 28.0137 59.4131 27.2723C61.4724 25.6248 63.7788 24.8011 66.3324 24.8011C68.5153 24.8011 70.1422 25.3159 71.213 26.3456C72.3251 27.3341 72.8811 28.7756 72.8811 30.6702C72.8811 32.0705 72.4486 33.2032 71.5837 34.0681C70.76 34.8918 69.6479 35.3037 68.2476 35.3037C67.671 35.3037 67.0944 35.2625 66.5178 35.1801L65.7764 34.9948V26.3456C63.6759 26.3456 61.7607 27.1693 60.0309 28.8168C59.2071 29.6405 58.5481 30.4643 58.0539 31.288V54.1466L61.7607 55.0733V56H44.4623V55.0733ZM92.3346 56.9267C87.0627 56.9267 82.9646 55.4852 80.0403 52.6021C77.1161 49.6778 75.654 45.6621 75.654 40.555C75.654 37.2189 76.2923 34.3152 77.5691 31.844C78.8459 29.3728 80.6169 27.4782 82.8822 26.1603C85.1887 24.8423 87.8246 24.1833 90.7901 24.1833C93.7555 24.1833 96.3503 24.7393 98.5743 25.8514C100.84 26.9634 102.569 28.4667 103.764 30.3613C104.999 32.2147 105.617 34.274 105.617 36.5393C105.617 37.569 105.514 38.4545 105.308 39.1958L104.999 40.2461C103.228 40.6168 101.313 40.9257 99.2539 41.1728C94.9293 41.7906 90.5635 42.0995 86.1566 42.0995C86.1566 46.8772 86.8155 50.2956 88.1335 52.355C89.4515 54.3731 91.2637 55.3822 93.5702 55.3822C95.1764 55.3822 96.6592 55.0115 98.0183 54.2702C99.4187 53.4876 100.51 52.4785 101.293 51.2429C102.116 49.9662 102.528 48.6688 102.528 47.3508H104.073C104.073 48.9983 103.579 50.5634 102.59 52.0461C101.602 53.5288 100.222 54.7232 98.4508 55.6293C96.6797 56.4942 94.641 56.9267 92.3346 56.9267ZM86.1566 40.555C88.7925 40.555 90.9342 40.452 92.5817 40.2461C93.2818 40.2049 94.0232 40.1019 94.8058 39.9372C94.8469 39.7313 94.9499 39.2782 95.1147 38.578C95.3206 37.5484 95.4236 36.4569 95.4236 35.3037C95.4236 31.8852 94.9705 29.3934 94.0644 27.8283C93.1583 26.222 92.0668 25.4189 90.7901 25.4189C87.7011 25.4189 86.1566 30.4643 86.1566 40.555ZM109.606 26.9634L106.517 26.0367V25.11H113.622C115.805 25.11 117.535 25.5631 118.812 26.4692C120.088 27.3753 121.139 28.6726 121.962 30.3613L128.758 44.5707L132.28 35.5508L128.14 26.9634L125.051 26.0367V25.11H132.156C134.339 25.11 136.069 25.5631 137.346 26.4692C138.622 27.3753 139.673 28.6726 140.496 30.3613L147.292 44.5707L153.779 27.8901L149.146 26.0367V25.11H160.575V26.0367L155.633 27.8901L144.203 56.6178H142.35L133.206 37.5896L125.669 56.6178H123.816L109.606 26.9634ZM177.282 56.9267C172.01 56.9267 167.912 55.4852 164.988 52.6021C162.064 49.6778 160.601 45.6621 160.601 40.555C160.601 37.2189 161.24 34.3152 162.517 31.844C163.793 29.3728 165.564 27.4782 167.83 26.1603C170.136 24.8423 172.772 24.1833 175.738 24.1833C178.703 24.1833 181.298 24.7393 183.522 25.8514C185.787 26.9634 187.517 28.4667 188.711 30.3613C189.947 32.2147 190.565 34.274 190.565 36.5393C190.565 37.569 190.462 38.4545 190.256 39.1958L189.947 40.2461C188.176 40.6168 186.261 40.9257 184.201 41.1728C179.877 41.7906 175.511 42.0995 171.104 42.0995C171.104 46.8772 171.763 50.2956 173.081 52.355C174.399 54.3731 176.211 55.3822 178.518 55.3822C180.124 55.3822 181.607 55.0115 182.966 54.2702C184.366 53.4876 185.458 52.4785 186.24 51.2429C187.064 49.9662 187.476 48.6688 187.476 47.3508H189.02C189.02 48.9983 188.526 50.5634 187.538 52.0461C186.549 53.5288 185.169 54.7232 183.398 55.6293C181.627 56.4942 179.589 56.9267 177.282 56.9267ZM171.104 40.555C173.74 40.555 175.882 40.452 177.529 40.2461C178.229 40.2049 178.971 40.1019 179.753 39.9372C179.794 39.7313 179.897 39.2782 180.062 38.578C180.268 37.5484 180.371 36.4569 180.371 35.3037C180.371 31.8852 179.918 29.3934 179.012 27.8283C178.106 26.222 177.014 25.4189 175.738 25.4189C172.649 25.4189 171.104 30.4643 171.104 40.555Z" fill="#BC312E"/>
<path d="M192.141 55.0733L195.848 54.1466V26.9634L192.141 26.0367V25.11H197.701C200.131 25.11 202.047 25.8925 203.447 27.4576C203.982 28.0754 204.435 28.8374 204.806 29.7435C205.424 28.8374 206.186 28.0137 207.092 27.2723C209.151 25.6248 211.458 24.8011 214.011 24.8011C216.194 24.8011 217.821 25.3159 218.892 26.3456C220.004 27.3341 220.56 28.7756 220.56 30.6702C220.56 32.0705 220.127 33.2032 219.263 34.0681C218.439 34.8918 217.327 35.3037 215.926 35.3037C215.35 35.3037 214.773 35.2625 214.197 35.1801L213.455 34.9948V26.3456C211.355 26.3456 209.44 27.1693 207.71 28.8168C206.886 29.6405 206.227 30.4643 205.733 31.288V54.1466L209.44 55.0733V56H192.141V55.0733Z" fill="#BC312E"/>
<path d="M232.607 69.2827C230.753 69.2827 229.312 68.7885 228.282 67.8C227.253 66.8115 226.738 65.4523 226.738 63.7225C226.738 62.1574 227.15 60.9424 227.973 60.0775C228.838 59.2126 229.971 58.7801 231.371 58.7801C231.701 58.7801 232.03 58.8007 232.36 58.8419C232.689 58.9243 232.916 58.9654 233.039 58.9654L233.842 59.089V67.4293C235.037 67.2234 236.087 66.5644 236.993 65.4523C237.899 64.3403 238.908 62.4251 240.02 59.7068L241.256 56.6178L225.193 26.9634L222.104 26.0367V25.11H229.827C231.968 25.11 233.657 25.5631 234.893 26.4692C236.169 27.3341 237.261 28.6315 238.167 30.3613L245.89 44.6325L252.376 27.8901L247.743 26.0367V25.11H259.172V26.0367L254.23 27.8901L241.874 59.7068C240.556 63.0841 239.156 65.5141 237.673 66.9968C236.19 68.5207 234.501 69.2827 232.607 69.2827ZM261.643 56.6178C260.408 56.6178 259.316 56.1647 258.369 55.2586C257.463 54.3113 257.01 53.2199 257.01 51.9843C257.01 50.7487 257.463 49.6778 258.369 48.7717C259.316 47.8244 260.408 47.3508 261.643 47.3508C262.879 47.3508 263.95 47.8244 264.856 48.7717C265.803 49.6778 266.277 50.7487 266.277 51.9843C266.277 53.2199 265.803 54.3113 264.856 55.2586C263.95 56.1647 262.879 56.6178 261.643 56.6178Z" fill="#BC312E"/>
</svg>
