<?xml version="1.0" encoding="UTF-8"?><svg id="Layer_1" data-name="Layer 1" xmlns="http://www.w3.org/2000/svg" viewBox="0 0 236.3 62.5"><defs><style>.cls-1 {
        fill: #0083ef;
      }</style></defs><g><path d="M116.44 45.21c-1.52 3.19-4.45 4.5-8.05 4.5-3.8 0-7.79-2.33-7.79-7.19 0-10.32 15.34-5.67 15.34-10.38 0-1.47-1.06-2.28-2.68-2.28-2.08 0-2.94 1.11-2.94 2.99h-8.96c0-6.83 6.23-9.46 12.5-9.46s11.89 2.48 11.89 8.86V49.2h-9.31v-4Zm-3.9-1.62c2.13 0 3.54-1.27 3.54-3.75v-1.72c-2.28 1.47-6.02 1.01-6.02 3.39 0 1.42 1.21 2.08 2.48 2.08Z"/><path d="M147.1 45.87a9.12 9.12 0 0 1-7.59 3.85c-6.68 0-11.03-5.06-11.03-13.16s4.35-13.16 11.03-13.16a9.02 9.02 0 0 1 7.19 3.34V13.78h9.87v35.43h-9.46v-3.34Zm-9.11-9.31c0 2.83 1.72 4.71 4.35 4.71s4.35-1.87 4.35-4.71-1.77-4.71-4.35-4.71-4.35 1.87-4.35 4.71Z"/><path d="M178.23 45.87a9.12 9.12 0 0 1-7.59 3.85c-6.68 0-11.03-5.06-11.03-13.16s4.35-13.16 11.03-13.16a9.02 9.02 0 0 1 7.19 3.34V13.78h9.87v35.43h-9.46v-3.34Zm-9.11-9.31c0 2.83 1.72 4.71 4.35 4.71s4.35-1.87 4.35-4.71-1.77-4.71-4.35-4.71-4.35 1.87-4.35 4.71Z"/><path d="M191.18 15.7c0-2.94 2.28-5.16 5.52-5.16s5.47 2.23 5.47 5.16-2.33 5.16-5.47 5.16-5.52-2.33-5.52-5.16Zm.56 33.51V23.9l2.84.9a7.2 7.2 0 0 0 4.52-.05l2.51-.86V49.2h-9.87Z"/><path d="M231.16 38.58h-17.41c.46 2.58 1.87 3.75 4.35 3.75 1.62 0 2.94-.41 3.54-1.87h9.11c-1.72 6.12-6.12 9.26-12.8 9.26-7.79 0-13.31-5.42-13.31-13.16s5.52-13.16 13.31-13.16 13.31 5.42 13.31 13.16c0 .71-.05 1.37-.1 2.02Zm-17.36-4.3h8.3c-.56-2.48-2.02-3.49-4.15-3.49s-3.59 1.11-4.15 3.49Z"/></g><g><path class="cls-1" d="M81.32 27.15a22.96 22.96 0 0 0-1.04-5.24c-.4-1.2-1.03-2.15-2.52-1.95-1.05.14-1.29-.49-1.45-1.34-.94-5.11-3.99-8.47-8.73-10.38a3.03 3.03 0 0 1-1.3-1.04 9.25 9.25 0 0 0-5.98-3.64c-4.93-.85-9.93-.94-14.9-1.05-5.63-.13-11.26.23-16.87.8a10.64 10.64 0 0 0-7.55 3.91c-.46.56-1 .89-1.64 1.18-4.57 2.03-7.55 5.39-8.37 10.42-.14.87-.45 1.25-1.3 1.13-1.26-.17-1.95.49-2.42 1.57-.38.86-.63 1.76-.79 2.68a58.75 58.75 0 0 0-.51 16.59c.2 1.85.42 3.7 1.02 5.49.5 1.49 1.31 2.5 3.09 2.23.75-.11 1.13.24 1.15 1.03 0 .36.12.72.19 1.08a10.24 10.24 0 0 0 8.81 8.07c7.79.79 15.6 1.17 23.84 1.25 7.16-.12 14.73-.46 22.28-1.18 5.26-.5 8.95-3.74 9.72-8.91.15-.99.53-1.4 1.57-1.37 1.64.04 2.12-.33 2.68-1.9.26-.72.45-1.48.58-2.23 1.02-5.71.99-11.45.46-17.2Zm-9.8 14.38a53.27 53.27 0 0 1-1.83 8.17 7.01 7.01 0 0 1-2.58 3.45 6.62 6.62 0 0 1-3.83 1.41H23.99c-1.24 0-2.6-.5-3.83-1.41a7.01 7.01 0 0 1-2.58-3.45 53.48 53.48 0 0 1 0-31.44 7.01 7.01 0 0 1 2.58-3.45 6.62 6.62 0 0 1 3.83-1.41h39.28c1.24 0 2.6.5 3.83 1.41a7.01 7.01 0 0 1 2.58 3.45 53.93 53.93 0 0 1 2.36 14.97 53.7 53.7 0 0 1-.53 8.31Z"/><g><path class="cls-1" d="M32.38 37.21c1.13-.05 2.21.04 3.21.27.93.21 1.9-.23 2.27-1.11 1.35-3.29.78-7.55-1.58-10.13a6.08 6.08 0 0 0-8.99.22 7.8 7.8 0 0 0-1.87 5.92c.09 1.61.31 3.2 1.06 4.61a1.96 1.96 0 0 0 2.4.91c1.06-.39 2.25-.64 3.51-.7Z"/><path class="cls-1" d="M54.97 37.22c1.08.09 2.1.32 3.03.65a2.2 2.2 0 0 0 2.66-1.03c1.63-3.06 1.57-7.2-.37-9.98a6.07 6.07 0 0 0-8.94-.98 7.83 7.83 0 0 0-2.65 5.62c-.12 1.52-.12 3.03.35 4.45.35 1.05 1.44 1.67 2.52 1.45s2.21-.29 3.4-.19Z"/></g></g></svg>