<svg id="Layer_1" data-name="Layer 1" xmlns="http://www.w3.org/2000/svg" viewBox="0 0 50 50"><defs><style>.cls-1{fill:#fff;}.cls-2{fill:#d1e603;}</style></defs><polygon class="cls-1" points="26.14 29.81 28.21 29.81 22.15 36.67 23.05 33.3 26.14 29.81"/><path class="cls-2" d="M40.32,24.16,19.25,47.47l.89-3.3L36.82,25.71H27.93a11.44,11.44,0,0,0,6.21-10.17,11.2,11.2,0,0,0-.07-1.3H26.55L27,12.69H35.4l.11.64a13.63,13.63,0,0,1,.18,2.21,13,13,0,0,1-3.27,8.62Z"/><path class="cls-1" d="M29.92,29.38l.74-.84H22.17a13,13,0,1,1,9-22.86l-1.27,1A11.45,11.45,0,1,0,22.69,27H34.12L20.67,42.2l.9-3.37Z"/><path class="cls-1" d="M32.92,17.86A10.51,10.51,0,0,1,23.4,26a8.55,8.55,0,0,1-1.34,0,10.24,10.24,0,0,1-4.23-1.19A10.48,10.48,0,1,1,29.09,7.23l-1.3,1a8.93,8.93,0,1,0-9.55,15.07,8.84,8.84,0,0,0,4.45,1.19,8.51,8.51,0,0,0,1.14-.07,8.94,8.94,0,0,0,7.68-7.45H25.83l.41-1.56h6.88A9.74,9.74,0,0,1,32.92,17.86Z"/><path class="cls-2" d="M29.9,18.1l-.07.21a.58.58,0,0,1-.06.17A7.35,7.35,0,0,1,28,21.17a7.74,7.74,0,0,1-3.84,2,8.07,8.07,0,0,1-1.48.14h-.32a7.53,7.53,0,0,1-3.81-1.21A7.8,7.8,0,0,1,15,16a7.69,7.69,0,0,1,2.09-5.79A7.72,7.72,0,0,1,26.77,9l-1.36,1A6.18,6.18,0,0,0,19,20.47a6.06,6.06,0,0,0,3.44,1.25,6.47,6.47,0,0,0,2.2-.3,6.18,6.18,0,0,0,2.68-1.77H25.1l.42-1.55Z"/></svg>